<svg width="19" height="18" viewBox="0 0 19 18" fill="none" xmlns="http://www.w3.org/2000/svg">
<g clip-path="url(#clip0_482_3353)">
<path d="M17.5348 0H2.19609C1.46133 0 0.867188 0.580078 0.867188 1.29727V16.6992C0.867188 17.4164 1.46133 18 2.19609 18H17.5348C18.2695 18 18.8672 17.4164 18.8672 16.7027V1.29727C18.8672 0.580078 18.2695 0 17.5348 0ZM6.20742 15.3387H3.53555V6.74648H6.20742V15.3387ZM4.87148 5.57578C4.01367 5.57578 3.32109 4.8832 3.32109 4.02891C3.32109 3.17461 4.01367 2.48203 4.87148 2.48203C5.72578 2.48203 6.41836 3.17461 6.41836 4.02891C6.41836 4.87969 5.72578 5.57578 4.87148 5.57578ZM16.2059 15.3387H13.5375V11.1621C13.5375 10.1672 13.5199 8.88398 12.1488 8.88398C10.7602 8.88398 10.5492 9.97031 10.5492 11.0918V15.3387H7.88438V6.74648H10.4437V7.9207H10.4789C10.834 7.2457 11.7059 6.53203 13.0031 6.53203C15.7066 6.53203 16.2059 8.31094 16.2059 10.6242V15.3387Z" fill="white"/>
</g>
<defs>
<clipPath id="clip0_482_3353">
<rect width="18" height="18" fill="white" transform="translate(0.867188)"/>
</clipPath>
</defs>
</svg>
