<svg width="19" height="18" viewBox="0 0 19 18" fill="none" xmlns="http://www.w3.org/2000/svg">
<g clip-path="url(#clip0_482_3356)">
<path d="M9.86719 1.6207C12.2719 1.6207 12.5566 1.63125 13.5023 1.67344C14.3813 1.71211 14.8559 1.85977 15.1723 1.98281C15.5906 2.14453 15.893 2.34141 16.2059 2.6543C16.5223 2.9707 16.7156 3.26953 16.8773 3.68789C17.0004 4.0043 17.148 4.48242 17.1867 5.35781C17.2289 6.30703 17.2395 6.5918 17.2395 8.99297C17.2395 11.3977 17.2289 11.6824 17.1867 12.6281C17.148 13.507 17.0004 13.9816 16.8773 14.298C16.7156 14.7164 16.5188 15.0187 16.2059 15.3316C15.8895 15.648 15.5906 15.8414 15.1723 16.0031C14.8559 16.1262 14.3777 16.2738 13.5023 16.3125C12.5531 16.3547 12.2684 16.3652 9.86719 16.3652C7.4625 16.3652 7.17773 16.3547 6.23203 16.3125C5.35313 16.2738 4.87852 16.1262 4.56211 16.0031C4.14375 15.8414 3.84141 15.6445 3.52852 15.3316C3.21211 15.0152 3.01875 14.7164 2.85703 14.298C2.73398 13.9816 2.58633 13.5035 2.54766 12.6281C2.50547 11.6789 2.49492 11.3941 2.49492 8.99297C2.49492 6.58828 2.50547 6.30351 2.54766 5.35781C2.58633 4.47891 2.73398 4.0043 2.85703 3.68789C3.01875 3.26953 3.21563 2.96719 3.52852 2.6543C3.84492 2.33789 4.14375 2.14453 4.56211 1.98281C4.87852 1.85977 5.35664 1.71211 6.23203 1.67344C7.17773 1.63125 7.4625 1.6207 9.86719 1.6207ZM9.86719 0C7.42383 0 7.11797 0.0105469 6.1582 0.0527344C5.20195 0.0949219 4.54453 0.249609 3.975 0.471094C3.38086 0.703125 2.87813 1.00898 2.37891 1.51172C1.87617 2.01094 1.57031 2.51367 1.33828 3.1043C1.1168 3.67734 0.962109 4.33125 0.919922 5.2875C0.877734 6.25078 0.867188 6.55664 0.867188 9C0.867188 11.4434 0.877734 11.7492 0.919922 12.709C0.962109 13.6652 1.1168 14.3227 1.33828 14.8922C1.57031 15.4863 1.87617 15.9891 2.37891 16.4883C2.87813 16.9875 3.38086 17.2969 3.97148 17.5254C4.54453 17.7469 5.19844 17.9016 6.15469 17.9437C7.11445 17.9859 7.42031 17.9965 9.86367 17.9965C12.307 17.9965 12.6129 17.9859 13.5727 17.9437C14.5289 17.9016 15.1863 17.7469 15.7559 17.5254C16.3465 17.2969 16.8492 16.9875 17.3484 16.4883C17.8477 15.9891 18.157 15.4863 18.3855 14.8957C18.607 14.3227 18.7617 13.6687 18.8039 12.7125C18.8461 11.7527 18.8566 11.4469 18.8566 9.00352C18.8566 6.56016 18.8461 6.2543 18.8039 5.29453C18.7617 4.33828 18.607 3.68086 18.3855 3.11133C18.1641 2.51367 17.8582 2.01094 17.3555 1.51172C16.8563 1.0125 16.3535 0.703125 15.7629 0.474609C15.1898 0.253125 14.5359 0.0984375 13.5797 0.05625C12.6164 0.0105469 12.3105 0 9.86719 0Z" fill="white"/>
<path d="M9.86719 4.37695C7.31484 4.37695 5.24414 6.44766 5.24414 9C5.24414 11.5523 7.31484 13.623 9.86719 13.623C12.4195 13.623 14.4902 11.5523 14.4902 9C14.4902 6.44766 12.4195 4.37695 9.86719 4.37695ZM9.86719 11.9988C8.21133 11.9988 6.86836 10.6559 6.86836 9C6.86836 7.34414 8.21133 6.00117 9.86719 6.00117C11.523 6.00117 12.866 7.34414 12.866 9C12.866 10.6559 11.523 11.9988 9.86719 11.9988Z" fill="white"/>
<path d="M15.7523 4.19404C15.7523 4.7917 15.2672 5.27334 14.673 5.27334C14.0754 5.27334 13.5938 4.78818 13.5938 4.19404C13.5938 3.59639 14.0789 3.11475 14.673 3.11475C15.2672 3.11475 15.7523 3.5999 15.7523 4.19404Z" fill="white"/>
</g>
<defs>
<clipPath id="clip0_482_3356">
<rect width="18" height="18" fill="white" transform="translate(0.867188)"/>
</clipPath>
</defs>
</svg>
