<svg width="122" height="60" viewBox="0 0 122 60" fill="none" xmlns="http://www.w3.org/2000/svg">
<path d="M14.5613 21.2865H1.15333V0.230469H13.5373V2.40647H3.77733V19.1105H14.5613V21.2865ZM2.04933 11.6545V9.54247H12.3213V11.6545H2.04933Z" fill="black"/>
<path d="M17.9566 21.2865V8.19847L20.4846 7.75047V21.2865H17.9566ZM19.2366 4.29447C18.7032 4.29447 18.2766 4.14514 17.9566 3.84647C17.6579 3.52647 17.5086 3.12114 17.5086 2.63047C17.5086 2.1398 17.6579 1.74514 17.9566 1.44647C18.2766 1.12647 18.7032 0.966469 19.2366 0.966469C19.7272 0.966469 20.1326 1.12647 20.4526 1.44647C20.7726 1.74514 20.9326 2.1398 20.9326 2.63047C20.9326 3.12114 20.7726 3.52647 20.4526 3.84647C20.1326 4.14514 19.7272 4.29447 19.2366 4.29447Z" fill="black"/>
<path d="M27.9948 21.6065C27.3548 21.6065 26.7362 21.5425 26.1388 21.4145C25.5415 21.3078 24.9975 21.1585 24.5068 20.9665C24.0375 20.7745 23.6322 20.5718 23.2908 20.3585L23.9948 18.3105C24.5068 18.8011 25.1468 19.1958 25.9148 19.4945C26.6828 19.7718 27.4188 19.9105 28.1228 19.9105C28.9548 19.9105 29.5948 19.7078 30.0428 19.3025C30.4908 18.8758 30.7148 18.3958 30.7148 17.8625C30.7148 17.3291 30.5442 16.9131 30.2028 16.6145C29.8828 16.2945 29.4562 16.0278 28.9228 15.8145C28.4108 15.6011 27.8668 15.3985 27.2908 15.2065C26.7362 15.0145 26.1922 14.7798 25.6588 14.5025C25.1468 14.2038 24.7308 13.8198 24.4108 13.3505C24.0908 12.8811 23.9308 12.2838 23.9308 11.5585C23.9308 10.6838 24.1442 9.96914 24.5708 9.41447C24.9975 8.83847 25.5628 8.40114 26.2668 8.10247C26.9922 7.8038 27.7922 7.65447 28.6668 7.65447C29.3282 7.65447 30.0002 7.7398 30.6828 7.91047C31.3655 8.08114 31.9522 8.3158 32.4428 8.61447L31.7388 10.5345C31.3335 10.1291 30.8108 9.8198 30.1708 9.60647C29.5308 9.39314 28.9868 9.28647 28.5388 9.28647C27.7708 9.28647 27.1842 9.45714 26.7788 9.79847C26.3948 10.1398 26.2028 10.5558 26.2028 11.0465C26.2028 11.5158 26.3628 11.8998 26.6828 12.1985C27.0242 12.4971 27.4508 12.7531 27.9628 12.9665C28.4748 13.1798 29.0188 13.3931 29.5948 13.6065C30.1922 13.7985 30.7468 14.0438 31.2588 14.3425C31.7922 14.6411 32.2188 15.0358 32.5388 15.5265C32.8802 15.9958 33.0508 16.6038 33.0508 17.3505C33.0508 17.9265 32.9335 18.4705 32.6988 18.9825C32.4855 19.4945 32.1548 19.9531 31.7068 20.3585C31.2802 20.7425 30.7468 21.0518 30.1068 21.2865C29.4882 21.4998 28.7842 21.6065 27.9948 21.6065Z" fill="black"/>
<path d="M45.1423 21.2865V13.6385C45.1423 12.4011 44.865 11.4305 44.3103 10.7265C43.7557 10.0225 42.9663 9.67047 41.9423 9.67047C41.409 9.67047 40.8437 9.77714 40.2463 9.99047C39.6703 10.2038 39.1263 10.5345 38.6143 10.9825C38.1023 11.4091 37.665 11.9745 37.3023 12.6785L36.4383 11.9105C36.9503 10.9718 37.5583 10.2038 38.2623 9.60647C38.9877 8.9878 39.7557 8.52914 40.5663 8.23047C41.3983 7.9318 42.209 7.78247 42.9983 7.78247C43.9157 7.78247 44.7157 7.98514 45.3983 8.39047C46.1023 8.77447 46.657 9.3398 47.0623 10.0865C47.4677 10.8331 47.6703 11.7291 47.6703 12.7745V21.2865H45.1423ZM35.4143 21.2865V8.19847L37.4943 7.75047L37.9423 10.8225V21.2865H35.4143Z" fill="black"/>
<path d="M56.6383 21.6065C55.3797 21.6065 54.2597 21.3505 53.2783 20.8385C52.3183 20.3051 51.561 19.5478 51.0063 18.5665C50.473 17.5851 50.2063 16.4225 50.2063 15.0785C50.2063 13.6065 50.505 12.3158 51.1023 11.2065C51.721 10.0971 52.553 9.23314 53.5983 8.61447C54.6437 7.9958 55.8277 7.68647 57.1503 7.68647C58.7503 7.68647 59.9557 8.1558 60.7663 9.09447C61.577 10.0118 61.9823 11.2811 61.9823 12.9025C61.9823 13.0945 61.9823 13.2971 61.9823 13.5105C61.9823 13.7238 61.961 13.9371 61.9183 14.1505H59.7743V12.8705C59.7743 11.7398 59.5503 10.8971 59.1023 10.3425C58.6543 9.76647 57.9397 9.47847 56.9583 9.47847C56.0837 9.47847 55.3157 9.6918 54.6543 10.1185C53.993 10.5451 53.481 11.1531 53.1183 11.9425C52.7557 12.7318 52.5743 13.6598 52.5743 14.7265C52.5743 16.2411 52.9903 17.4465 53.8223 18.3425C54.6757 19.2171 55.785 19.6545 57.1503 19.6545C57.8543 19.6545 58.5263 19.5265 59.1663 19.2705C59.8277 18.9931 60.4677 18.5878 61.0863 18.0545L61.9503 19.3665C61.3743 19.9211 60.7877 20.3691 60.1903 20.7105C59.593 21.0305 58.9957 21.2545 58.3983 21.3825C57.801 21.5318 57.2143 21.6065 56.6383 21.6065ZM51.5503 14.1505L51.8383 12.5825H61.5983V14.1505H51.5503Z" fill="black"/>
<path d="M64.4793 21.2865V8.19847L66.5593 7.75047L67.0073 11.0145V21.2865H64.4793ZM66.5593 12.9345L65.9513 12.1345C66.6553 10.7905 67.4553 9.73447 68.3513 8.96647C69.2687 8.19847 70.282 7.81447 71.3913 7.81447C71.8607 7.81447 72.298 7.87847 72.7033 8.00647C73.1087 8.11314 73.4607 8.29447 73.7593 8.55047L72.7353 10.6625C72.5007 10.4705 72.1913 10.3211 71.8073 10.2145C71.4447 10.0865 71.0607 10.0225 70.6553 10.0225C69.866 10.0225 69.13 10.2678 68.4473 10.7585C67.7647 11.2491 67.1353 11.9745 66.5593 12.9345Z" fill="black"/>
<path d="M8.09733 50.4785C6.71067 50.4785 5.47333 50.2331 4.38533 49.7425C3.31867 49.2305 2.42267 48.5478 1.69733 47.6945C0.993333 46.8411 0.502667 45.8705 0.225333 44.7825C-0.052 43.6945 -0.0733334 42.5638 0.161333 41.3905C0.438667 40.1318 0.929333 39.0331 1.63333 38.0945C2.35867 37.1558 3.23333 36.4198 4.25733 35.8865C5.30267 35.3531 6.40133 35.0865 7.55333 35.0865C8.27867 35.0865 8.96133 35.2038 9.60133 35.4385C10.2627 35.6731 10.8493 36.0465 11.3613 36.5585L9.53733 38.1905C9.15333 37.6358 8.67333 37.2625 8.09733 37.0705C7.54267 36.8571 7.03067 36.7505 6.56133 36.7505C5.772 36.7505 5.08933 36.9211 4.51333 37.2625C3.93733 37.6038 3.45733 38.0625 3.07333 38.6385C2.68933 39.1931 2.42267 39.8545 2.27333 40.6225C2.03867 41.6465 2.028 42.6278 2.24133 43.5665C2.476 44.5051 2.90267 45.3371 3.52133 46.0625C4.14 46.7665 4.908 47.3318 5.82533 47.7585C6.74267 48.1638 7.76667 48.3665 8.89733 48.3665C10.22 48.3665 11.3613 48.0785 12.3213 47.5025C13.3027 46.9051 14.092 46.0305 14.6893 44.8785C15.2867 43.7265 15.6813 42.2971 15.8733 40.5905L17.6333 40.7185C17.4627 42.8305 16.94 44.6225 16.0653 46.0945C15.1907 47.5451 14.06 48.6438 12.6733 49.3905C11.308 50.1158 9.78267 50.4785 8.09733 50.4785ZM2.11333 45.4225L1.31333 44.3665C2.40133 43.4705 3.57467 42.5531 4.83333 41.6145C6.092 40.6758 7.28667 39.7265 8.41733 38.7665C9.56933 37.7851 10.5507 36.8038 11.3613 35.8225C12.1933 34.8198 12.7053 33.8385 12.8973 32.8785C12.9827 32.4945 12.9933 32.0891 12.9293 31.6625C12.8867 31.2358 12.7693 30.8198 12.5773 30.4145C12.3853 30.0091 12.108 29.6571 11.7453 29.3585L13.9213 28.1425C14.4547 28.5478 14.8173 28.9958 15.0093 29.4865C15.2013 29.9771 15.2867 30.4678 15.2653 30.9585C15.2653 31.4491 15.2227 31.8971 15.1373 32.3025C14.8813 33.5398 14.2947 34.7345 13.3773 35.8865C12.4813 37.0385 11.3933 38.1585 10.1133 39.2465C8.85467 40.3345 7.52133 41.3905 6.11333 42.4145C4.70533 43.4385 3.372 44.4411 2.11333 45.4225ZM11.6173 42.5745L10.4653 42.2545C10.7213 41.5718 11.0307 41.0171 11.3933 40.5905C11.756 40.1638 12.1827 39.8438 12.6733 39.6305C13.164 39.4171 13.6867 39.3105 14.2413 39.3105C14.8173 39.3105 15.3613 39.3745 15.8733 39.5025C16.4067 39.6091 16.9293 39.7265 17.4413 39.8545C17.9533 39.9825 18.4867 40.0465 19.0413 40.0465C19.596 40.0465 20.0867 39.9611 20.5133 39.7905C20.9613 39.5985 21.324 39.2785 21.6013 38.8305L22.7533 39.1185C22.412 40.0571 21.9427 40.7825 21.3453 41.2945C20.748 41.8065 19.948 42.0625 18.9453 42.0625C18.3267 42.0625 17.7613 41.9985 17.2493 41.8705C16.7373 41.7425 16.2467 41.6251 15.7773 41.5185C15.308 41.3905 14.7853 41.3265 14.2093 41.3265C13.6333 41.3265 13.1213 41.4225 12.6733 41.6145C12.2467 41.8065 11.8947 42.1265 11.6173 42.5745Z" fill="black"/>
<path d="M39.3063 45.1665C39.3063 44.4411 39.125 43.8225 38.7623 43.3105C38.421 42.7985 37.941 42.3611 37.3223 41.9985C36.725 41.6145 36.0743 41.2625 35.3703 40.9425C34.6663 40.6011 33.9517 40.2491 33.2263 39.8865C32.5223 39.5238 31.8717 39.1185 31.2743 38.6705C30.677 38.2011 30.197 37.6571 29.8343 37.0385C29.4717 36.3985 29.2903 35.6305 29.2903 34.7345C29.2903 33.5185 29.5783 32.4838 30.1543 31.6305C30.7303 30.7558 31.5197 30.0838 32.5223 29.6145C33.525 29.1451 34.6557 28.9105 35.9143 28.9105C36.8103 28.9105 37.7277 29.0171 38.6663 29.2305C39.605 29.4438 40.4477 29.7745 41.1943 30.2225L40.2023 32.6545C39.5623 32.1211 38.805 31.7051 37.9303 31.4065C37.077 31.1078 36.245 30.9585 35.4343 30.9585C34.6023 30.9585 33.909 31.1078 33.3543 31.4065C32.821 31.7051 32.4263 32.0998 32.1703 32.5905C31.9357 33.0598 31.8183 33.5611 31.8183 34.0945C31.8183 34.7345 31.9997 35.2891 32.3623 35.7585C32.725 36.2065 33.205 36.6118 33.8023 36.9745C34.3997 37.3158 35.0503 37.6571 35.7543 37.9985C36.4797 38.3185 37.1943 38.6705 37.8983 39.0545C38.6237 39.4171 39.285 39.8438 39.8823 40.3345C40.4797 40.8251 40.9597 41.4118 41.3223 42.0945C41.7063 42.7771 41.8983 43.5771 41.8983 44.4945C41.8983 45.7958 41.589 46.9051 40.9703 47.8225C40.3517 48.7398 39.509 49.4438 38.4423 49.9345C37.3757 50.4038 36.181 50.6385 34.8583 50.6385C33.5143 50.6385 32.2663 50.4358 31.1143 50.0305C29.9837 49.6251 29.045 49.1131 28.2983 48.4945L29.6423 46.2225C30.4103 46.9478 31.3063 47.5131 32.3303 47.9185C33.3543 48.3238 34.3783 48.5265 35.4023 48.5265C36.6183 48.5265 37.5677 48.2278 38.2503 47.6305C38.9543 47.0118 39.3063 46.1905 39.3063 45.1665Z" fill="black"/>
<path d="M49.7836 50.5105C49.0156 50.5105 48.3116 50.3505 47.6716 50.0305C47.0529 49.7105 46.5623 49.2518 46.1996 48.6545C45.8369 48.0358 45.6556 47.2785 45.6556 46.3825V37.6465L46.5196 34.1585L48.1836 33.8385V45.9345C48.1836 46.8305 48.3862 47.5025 48.7916 47.9505C49.2183 48.3985 49.7836 48.6225 50.4876 48.6225C50.9142 48.6225 51.3516 48.5478 51.7996 48.3985C52.2689 48.2491 52.7276 48.0038 53.1756 47.6625L53.9116 48.8145C53.2929 49.3905 52.6209 49.8171 51.8956 50.0945C51.1916 50.3718 50.4876 50.5105 49.7836 50.5105ZM53.1436 38.9265L43.0316 38.8945L43.1916 37.3265L53.2716 37.1665L53.1436 38.9265Z" fill="black"/>
<path d="M61.1071 50.6065C59.8484 50.6065 58.7284 50.3505 57.7471 49.8385C56.7871 49.3051 56.0298 48.5478 55.4751 47.5665C54.9417 46.5851 54.6751 45.4225 54.6751 44.0785C54.6751 42.6065 54.9738 41.3158 55.5711 40.2065C56.1898 39.0971 57.0218 38.2331 58.0671 37.6145C59.1124 36.9958 60.2964 36.6865 61.6191 36.6865C63.2191 36.6865 64.4244 37.1558 65.2351 38.0945C66.0458 39.0118 66.4511 40.2811 66.4511 41.9025C66.4511 42.0945 66.4511 42.2971 66.4511 42.5105C66.4511 42.7238 66.4297 42.9371 66.3871 43.1505H64.2431V41.8705C64.2431 40.7398 64.0191 39.8971 63.5711 39.3425C63.1231 38.7665 62.4084 38.4785 61.4271 38.4785C60.5524 38.4785 59.7844 38.6918 59.1231 39.1185C58.4618 39.5451 57.9498 40.1531 57.5871 40.9425C57.2244 41.7318 57.0431 42.6598 57.0431 43.7265C57.0431 45.2411 57.4591 46.4465 58.2911 47.3425C59.1444 48.2171 60.2537 48.6545 61.6191 48.6545C62.3231 48.6545 62.9951 48.5265 63.6351 48.2705C64.2964 47.9931 64.9364 47.5878 65.5551 47.0545L66.4191 48.3665C65.8431 48.9211 65.2564 49.3691 64.6591 49.7105C64.0618 50.0305 63.4644 50.2545 62.8671 50.3825C62.2698 50.5318 61.6831 50.6065 61.1071 50.6065ZM56.0191 43.1505L56.3071 41.5825H66.0671V43.1505H56.0191Z" fill="black"/>
<path d="M68.9481 50.2865V37.1985L71.0281 36.7505L71.4761 40.0145V50.2865H68.9481ZM71.0281 41.9345L70.4201 41.1345C71.1241 39.7905 71.9241 38.7345 72.8201 37.9665C73.7374 37.1985 74.7507 36.8145 75.8601 36.8145C76.3294 36.8145 76.7667 36.8785 77.1721 37.0065C77.5774 37.1131 77.9294 37.2945 78.2281 37.5505L77.2041 39.6625C76.9694 39.4705 76.6601 39.3211 76.2761 39.2145C75.9134 39.0865 75.5294 39.0225 75.1241 39.0225C74.3347 39.0225 73.5987 39.2678 72.9161 39.7585C72.2334 40.2491 71.6041 40.9745 71.0281 41.9345Z" fill="black"/>
<path d="M80.0521 50.2865V27.7585L82.5161 27.3425V50.2865H80.0521Z" fill="black"/>
<path d="M86.9016 50.2865V37.1985L89.4296 36.7505V50.2865H86.9016ZM88.1816 33.2945C87.6483 33.2945 87.2216 33.1451 86.9016 32.8465C86.6029 32.5265 86.4536 32.1211 86.4536 31.6305C86.4536 31.1398 86.6029 30.7451 86.9016 30.4465C87.2216 30.1265 87.6483 29.9665 88.1816 29.9665C88.6723 29.9665 89.0776 30.1265 89.3976 30.4465C89.7176 30.7451 89.8776 31.1398 89.8776 31.6305C89.8776 32.1211 89.7176 32.5265 89.3976 32.8465C89.0776 33.1451 88.6723 33.2945 88.1816 33.2945Z" fill="black"/>
<path d="M103.18 50.2865V42.6385C103.18 41.4011 102.903 40.4305 102.348 39.7265C101.793 39.0225 101.004 38.6705 99.9798 38.6705C99.4465 38.6705 98.8812 38.7771 98.2838 38.9905C97.7078 39.2038 97.1638 39.5345 96.6518 39.9825C96.1398 40.4091 95.7025 40.9745 95.3398 41.6785L94.4758 40.9105C94.9878 39.9718 95.5958 39.2038 96.2998 38.6065C97.0252 37.9878 97.7932 37.5291 98.6038 37.2305C99.4358 36.9318 100.247 36.7825 101.036 36.7825C101.953 36.7825 102.753 36.9851 103.436 37.3905C104.14 37.7745 104.695 38.3398 105.1 39.0865C105.505 39.8331 105.708 40.7291 105.708 41.7745V50.2865H103.18ZM93.4518 50.2865V37.1985L95.5318 36.7505L95.9798 39.8225V50.2865H93.4518Z" fill="black"/>
<path d="M113.556 59.5345C112.489 59.5345 111.529 59.3745 110.676 59.0545C109.823 58.7345 109.151 58.2758 108.66 57.6785C108.169 57.1025 107.924 56.4198 107.924 55.6305C107.924 54.6278 108.372 53.6251 109.268 52.6225C110.164 51.6411 111.519 50.7771 113.332 50.0305L114.004 50.7985C112.788 51.4171 111.892 52.0998 111.316 52.8465C110.761 53.5931 110.484 54.3505 110.484 55.1185C110.484 55.9718 110.825 56.6438 111.508 57.1345C112.191 57.6465 113.087 57.9025 114.196 57.9025C115.113 57.9025 115.935 57.7318 116.66 57.3905C117.407 57.0491 117.993 56.5905 118.42 56.0145C118.868 55.4385 119.092 54.7771 119.092 54.0305C119.092 53.3691 118.921 52.8785 118.58 52.5585C118.239 52.2598 117.705 52.0358 116.98 51.8865C116.276 51.7371 115.348 51.6091 114.196 51.5025C113.279 51.3958 112.404 51.2571 111.572 51.0865C110.761 50.9158 110.111 50.6385 109.62 50.2545C109.129 49.8705 108.884 49.3371 108.884 48.6545C108.884 48.0998 109.012 47.6198 109.268 47.2145C109.545 46.7878 109.919 46.3931 110.388 46.0305C110.879 45.6678 111.455 45.3158 112.116 44.9745L112.948 45.7745C112.457 46.0305 112.009 46.3185 111.604 46.6385C111.22 46.9585 111.028 47.3531 111.028 47.8225C111.028 48.2065 111.188 48.5051 111.508 48.7185C111.828 48.9318 112.319 49.1025 112.98 49.2305C113.641 49.3371 114.494 49.4545 115.54 49.5825C116.692 49.6891 117.716 49.8491 118.612 50.0625C119.508 50.2758 120.212 50.6171 120.724 51.0865C121.257 51.5771 121.524 52.3025 121.524 53.2625C121.524 54.4571 121.161 55.5238 120.436 56.4625C119.711 57.4225 118.74 58.1691 117.524 58.7025C116.329 59.2571 115.007 59.5345 113.556 59.5345ZM114.036 46.4785C112.991 46.4785 112.063 46.2758 111.252 45.8705C110.463 45.4651 109.844 44.9105 109.396 44.2065C108.948 43.4811 108.724 42.6705 108.724 41.7745C108.724 40.7931 108.98 39.9185 109.492 39.1505C110.004 38.3825 110.697 37.7851 111.572 37.3585C112.447 36.9318 113.428 36.7185 114.516 36.7185C116.073 36.7185 117.332 37.1558 118.292 38.0305C119.273 38.8838 119.764 39.9931 119.764 41.3585C119.764 42.3398 119.519 43.2145 119.028 43.9825C118.537 44.7505 117.854 45.3585 116.98 45.8065C116.127 46.2545 115.145 46.4785 114.036 46.4785ZM114.388 44.8145C115.028 44.8145 115.572 44.6865 116.02 44.4305C116.468 44.1531 116.82 43.7905 117.076 43.3425C117.332 42.8731 117.46 42.3398 117.46 41.7425C117.46 40.7611 117.151 39.9611 116.532 39.3425C115.913 38.7025 115.103 38.3825 114.1 38.3825C113.204 38.3825 112.468 38.6705 111.892 39.2465C111.337 39.8011 111.06 40.5478 111.06 41.4865C111.06 42.1265 111.199 42.7025 111.476 43.2145C111.775 43.7051 112.169 44.0998 112.66 44.3985C113.172 44.6758 113.748 44.8145 114.388 44.8145ZM116.756 38.7985L116.436 37.5505L121.78 37.1345V38.7985H116.756Z" fill="black"/>
</svg>
