<svg width="169" height="23" viewBox="0 0 169 23" fill="none" xmlns="http://www.w3.org/2000/svg">
<path d="M12.942 8.60951C11.6598 8.20156 10.3777 7.85189 8.9499 7.85189C5.24924 7.85189 3.06381 10.2996 3.06381 13.6506C3.06381 16.9724 5.24924 19.4492 8.9499 19.4492C10.4069 19.4492 11.689 19.0704 12.942 18.6916V21.489C11.5724 21.9261 10.232 22.1592 8.92076 22.1592C3.76315 22.1592 0.149902 18.6334 0.149902 13.6506C0.149902 8.66779 3.76315 5.14196 8.92076 5.14196C10.232 5.14196 11.5724 5.37507 12.942 5.81216V8.60951Z" fill="black"/>
<path d="M23.0268 5.14196C27.9513 5.14196 31.448 8.84262 31.448 13.6506C31.448 18.4585 27.9513 22.1592 23.0268 22.1592C18.1023 22.1592 14.6056 18.4585 14.6056 13.6506C14.6056 8.84262 18.1023 5.14196 23.0268 5.14196ZM17.5195 13.6506C17.5195 16.9433 19.6467 19.4784 23.0268 19.4784C26.4069 19.4784 28.5049 16.9433 28.5049 13.6506C28.5049 10.3579 26.4069 7.82276 23.0268 7.82276C19.6467 7.82276 17.5195 10.3579 17.5195 13.6506Z" fill="black"/>
<path d="M34.0298 5.49163H36.9145V8.60951C37.7304 6.27838 39.5953 5.14196 41.8973 5.14196C44.9861 5.14196 47.5794 7.23997 47.5794 11.64V21.8095H44.6655V11.8731C44.6655 9.36713 43.4708 7.67706 40.9357 7.67706C38.2258 7.67706 36.9437 9.62938 36.9437 12.3102V21.8095H34.0298V5.49163Z" fill="black"/>
<path d="M56.7159 21.9843C53.4523 21.9843 52.0536 20.44 52.0536 17.3221V8.11415H49.5768V5.49163H52.0536V2.19891L54.9675 1.35388V5.49163H59.2219V8.11415H54.9675V16.885C54.9675 18.8665 55.5795 19.3035 57.1238 19.3035C57.8523 19.3035 58.5808 19.2161 59.2219 19.0996V21.7512C58.3768 21.8969 57.5609 21.9843 56.7159 21.9843Z" fill="black"/>
<path d="M61.8599 5.49163H64.7738V21.8095H61.8599V5.49163ZM61.8307 2.81084V0.15918H64.8612V2.81084H61.8307Z" fill="black"/>
<path d="M68.1202 5.49163H71.005V8.60951C71.8209 6.27838 73.6858 5.14196 75.9877 5.14196C79.0765 5.14196 81.6699 7.23997 81.6699 11.64V21.8095H78.756V11.8731C78.756 9.36713 77.5613 7.67706 75.0262 7.67706C72.3162 7.67706 71.0341 9.62938 71.0341 12.3102V21.8095H68.1202V5.49163Z" fill="black"/>
<path d="M91.5232 22.1592C87.1523 22.1592 84.8795 19.5075 84.8795 15.1367V5.49163H87.7934V15.3406C87.7934 17.7592 89.0172 19.5075 91.5523 19.5075C94.1457 19.5075 95.2821 17.73 95.2821 15.2824V5.49163H98.196V15.1367C98.196 19.5075 95.8941 22.1592 91.5232 22.1592Z" fill="black"/>
<path d="M108.056 22.1592C103.685 22.1592 101.412 19.5075 101.412 15.1367V5.49163H104.326V15.3406C104.326 17.7592 105.55 19.5075 108.085 19.5075C110.679 19.5075 111.815 17.73 111.815 15.2824V5.49163H114.729V15.1367C114.729 19.5075 112.427 22.1592 108.056 22.1592Z" fill="black"/>
<path d="M118.004 5.49163H120.889V8.58037C121.675 6.27838 123.511 5.14196 125.726 5.14196C127.998 5.14196 130.009 6.3658 130.854 8.87176C131.67 6.3658 133.71 5.14196 136.012 5.14196C139.042 5.14196 141.577 7.23997 141.577 11.64V21.8095H138.663V11.8731C138.663 9.36713 137.527 7.67706 135.108 7.67706C132.486 7.67706 131.262 9.62938 131.262 12.3102V21.8095H128.348V11.8731C128.348 9.36713 127.212 7.67706 124.764 7.67706C122.142 7.67706 120.918 9.62938 120.918 12.3102V21.8095H118.004V5.49163Z" fill="black"/>
<path d="M144.488 18.5459H147.927V21.8095H144.488V18.5459Z" fill="black"/>
<path d="M150.003 17.7592C150.003 15.5446 151.43 13.8837 154.024 13.0678L159.502 11.2903C159.356 8.78434 158.162 7.79362 155.801 7.79362C154.432 7.79362 152.946 8.11415 150.818 8.93004V6.13269C152.654 5.54991 154.461 5.14196 156.151 5.14196C160.493 5.14196 162.416 7.85189 162.416 11.7565V21.8095H159.56V19.4201C158.657 21.1102 156.909 22.1592 154.752 22.1592C151.78 22.1592 150.003 20.236 150.003 17.7592ZM152.946 17.5261C152.946 18.8373 153.995 19.8281 155.597 19.8281C157.579 19.8281 159.502 18.342 159.502 16.1274V13.6797L155.16 15.0784C153.645 15.5446 152.946 16.4188 152.946 17.5261Z" fill="black"/>
<path d="M165.668 5.49163H168.582V21.8095H165.668V5.49163ZM165.639 2.81084V0.15918H168.669V2.81084H165.639Z" fill="black"/>
</svg>
