<svg width="193" height="35" viewBox="0 0 193 35" fill="none" xmlns="http://www.w3.org/2000/svg">
<path d="M29.8295 31.8367C34.9495 31.7324 39.0664 27.5446 39.0664 22.3963C39.0664 19.8925 38.0725 17.4913 36.3031 15.7208L20.5927 0V9.77157C20.5927 11.4057 21.2415 12.9731 22.3964 14.1287L26.0766 17.8114L26.0866 17.8212L32.2575 23.9961C32.4579 24.1966 32.4579 24.5218 32.2575 24.7223C32.0572 24.9228 31.7322 24.9228 31.5318 24.7223L29.4048 22.5938H9.72806L7.60101 24.7223C7.4006 24.9228 7.07569 24.9228 6.8753 24.7223C6.67489 24.5218 6.67489 24.1966 6.87529 23.9961L13.0462 17.8212L13.0562 17.8114L16.7364 14.1287C17.8913 12.9731 18.5401 11.4057 18.5401 9.77157V0L2.82964 15.7208C1.06037 17.4913 0.0664062 19.8925 0.0664062 22.3963C0.0664062 27.5446 4.18331 31.7324 9.30328 31.8367H29.8295Z" fill="black"/>
<path d="M60.2143 28.2384C58.1343 28.2384 56.3032 27.7761 54.721 26.8517C53.1388 25.9273 51.9032 24.6295 51.0143 22.9584C50.1254 21.2873 49.681 19.3406 49.681 17.1184C49.681 14.8961 50.1432 12.9495 51.0677 11.2784C51.9921 9.60725 53.281 8.30948 54.9343 7.38503C56.5877 6.46059 58.5165 5.99837 60.721 5.99837C62.4454 5.99837 63.9743 6.2917 65.3077 6.87837C66.641 7.44726 67.7254 8.27392 68.561 9.35837C69.4143 10.425 69.9654 11.7228 70.2143 13.2517H66.3477C66.1165 11.9717 65.5121 10.985 64.5343 10.2917C63.5565 9.59837 62.2854 9.2517 60.721 9.2517C59.2454 9.2517 57.9565 9.5717 56.8543 10.2117C55.7699 10.8517 54.9254 11.7673 54.321 12.9584C53.7165 14.1495 53.4143 15.545 53.4143 17.145C53.4143 18.7628 53.7165 20.1761 54.321 21.385C54.9432 22.5761 55.7965 23.5095 56.881 24.185C57.9654 24.8428 59.2277 25.1717 60.6677 25.1717C61.7877 25.1717 62.7921 24.985 63.681 24.6117C64.5699 24.2206 65.2721 23.6961 65.7877 23.0384C66.321 22.3806 66.5877 21.6339 66.5877 20.7984V19.6784H60.2943V16.745H67.201C68.1788 16.745 68.9254 16.9939 69.441 17.4917C69.9566 17.9717 70.2143 18.6739 70.2143 19.5984V27.9184H66.7477V25.065H66.6143C66.1343 26.0606 65.3254 26.8428 64.1877 27.4117C63.0677 27.9628 61.7432 28.2384 60.2143 28.2384Z" fill="black"/>
<path d="M75.0568 27.9184V15.5717H73.2168V11.9184H77.0035V14.985H78.1235C78.5502 13.9361 79.2257 13.1361 80.1502 12.585C81.0924 12.0339 82.1679 11.7584 83.3768 11.7584H84.7102V14.8784H83.2168C81.7057 14.8784 80.559 15.3139 79.7768 16.185C79.0124 17.0561 78.6302 18.2206 78.6302 19.6784V27.9184H75.0568Z" fill="black"/>
<path d="M87.4543 27.9184V11.9184H91.081V27.9184H87.4543ZM89.2677 9.99837C88.6988 9.99837 88.2099 9.80281 87.801 9.4117C87.3921 9.00281 87.1877 8.50503 87.1877 7.91837C87.1877 7.34948 87.3832 6.86059 87.7743 6.4517C88.1832 6.04281 88.681 5.83837 89.2677 5.83837C89.8365 5.83837 90.3254 6.04281 90.7343 6.4517C91.1432 6.84281 91.3477 7.3317 91.3477 7.91837C91.3477 8.48726 91.1432 8.97614 90.7343 9.38503C90.3432 9.79392 89.8543 9.99837 89.2677 9.99837Z" fill="black"/>
<path d="M101.885 28.2384C100.267 28.2384 98.8892 27.9006 97.7514 27.225C96.6136 26.5317 95.7514 25.5628 95.1647 24.3184C94.5781 23.0739 94.2847 21.6073 94.2847 19.9184C94.2847 18.2295 94.5692 16.7628 95.1381 15.5184C95.7247 14.2561 96.5603 13.2873 97.6447 12.6117C98.747 11.9361 100.054 11.5984 101.565 11.5984C102.809 11.5984 103.876 11.8384 104.765 12.3184C105.654 12.7806 106.338 13.4473 106.818 14.3184H106.925V5.51837H110.551V24.265H112.365V27.9184H108.605V25.385H107.485C106.934 26.3095 106.187 27.0206 105.245 27.5184C104.32 27.9984 103.2 28.2384 101.885 28.2384ZM102.498 25.1184C103.849 25.1184 104.925 24.7361 105.725 23.9717C106.525 23.2073 106.925 22.1761 106.925 20.8784V18.9584C106.925 17.6606 106.525 16.6295 105.725 15.865C104.925 15.1006 103.849 14.7184 102.498 14.7184C101.023 14.7184 99.8847 15.1806 99.0847 16.105C98.3025 17.0295 97.9114 18.3006 97.9114 19.9184C97.9114 21.5361 98.3025 22.8073 99.0847 23.7317C99.8847 24.6561 101.023 25.1184 102.498 25.1184Z" fill="black"/>
<path d="M116.321 34.3184V15.5717H114.481V11.9184H118.268V14.4517H119.388C119.921 13.5273 120.659 12.825 121.601 12.345C122.544 11.8473 123.673 11.5984 124.988 11.5984C126.606 11.5984 127.975 11.945 129.095 12.6384C130.233 13.3139 131.095 14.2739 131.681 15.5184C132.286 16.7628 132.588 18.2295 132.588 19.9184C132.588 21.6073 132.295 23.0828 131.708 24.345C131.139 25.5895 130.304 26.5495 129.201 27.225C128.117 27.9006 126.81 28.2384 125.281 28.2384C124.073 28.2384 123.015 28.0073 122.108 27.545C121.219 27.065 120.535 26.3895 120.055 25.5184H119.948V34.3184H116.321ZM124.348 25.1184C125.841 25.1184 126.979 24.6561 127.761 23.7317C128.561 22.8073 128.961 21.5361 128.961 19.9184C128.961 18.3006 128.561 17.0295 127.761 16.105C126.979 15.1806 125.841 14.7184 124.348 14.7184C123.015 14.7184 121.948 15.1006 121.148 15.865C120.348 16.6295 119.948 17.6606 119.948 18.9584V20.8784C119.948 22.1761 120.348 23.2073 121.148 23.9717C121.948 24.7361 123.015 25.1184 124.348 25.1184Z" fill="black"/>
<path d="M143.158 28.2384C141.469 28.2384 139.994 27.9006 138.731 27.225C137.487 26.5317 136.518 25.5628 135.825 24.3184C135.131 23.0739 134.785 21.6073 134.785 19.9184C134.785 18.2295 135.123 16.7628 135.798 15.5184C136.491 14.2739 137.469 13.3139 138.731 12.6384C139.994 11.945 141.478 11.5984 143.185 11.5984C144.909 11.5984 146.394 11.9361 147.638 12.6117C148.883 13.2873 149.843 14.2473 150.518 15.4917C151.194 16.7361 151.531 18.2117 151.531 19.9184C151.531 21.6073 151.194 23.0828 150.518 24.345C149.843 25.5895 148.874 26.5495 147.611 27.225C146.367 27.9006 144.883 28.2384 143.158 28.2384ZM143.158 25.0917C144.669 25.0917 145.834 24.6295 146.651 23.705C147.487 22.7806 147.905 21.5184 147.905 19.9184C147.905 18.2828 147.487 17.0117 146.651 16.105C145.834 15.1984 144.669 14.745 143.158 14.745C141.665 14.745 140.5 15.2073 139.665 16.1317C138.829 17.0384 138.411 18.3006 138.411 19.9184C138.411 21.5184 138.829 22.7806 139.665 23.705C140.5 24.6295 141.665 25.0917 143.158 25.0917Z" fill="black"/>
<path d="M154.736 27.9184V11.9184H158.362V27.9184H154.736ZM156.549 9.99837C155.98 9.99837 155.491 9.80281 155.082 9.4117C154.673 9.00281 154.469 8.50503 154.469 7.91837C154.469 7.34948 154.664 6.86059 155.056 6.4517C155.464 6.04281 155.962 5.83837 156.549 5.83837C157.118 5.83837 157.607 6.04281 158.016 6.4517C158.424 6.84281 158.629 7.3317 158.629 7.91837C158.629 8.48726 158.424 8.97614 158.016 9.38503C157.624 9.79392 157.136 9.99837 156.549 9.99837Z" fill="black"/>
<path d="M163.353 27.9184V15.5717H161.513V11.9184H165.299V14.4517H166.419C166.988 13.545 167.744 12.8517 168.686 12.3717C169.646 11.8739 170.802 11.625 172.153 11.625C174.286 11.625 175.948 12.2295 177.139 13.4384C178.348 14.6295 178.953 16.2295 178.953 18.2384V27.9184H175.326V18.8784C175.326 17.5628 174.97 16.5584 174.259 15.865C173.566 15.1717 172.535 14.825 171.166 14.825C169.797 14.825 168.757 15.1717 168.046 15.865C167.335 16.5584 166.979 17.5628 166.979 18.8784V27.9184H163.353Z" fill="black"/>
<path d="M187.27 27.9184C186.292 27.9184 185.528 27.6695 184.976 27.1717C184.443 26.6739 184.176 25.9184 184.176 24.905V14.745H181.296V11.9184H184.203V7.11837H187.776V11.9184H191.75V14.745H187.803V25.065H192.15V27.9184H187.27Z" fill="black"/>
</svg>
