<svg width="120" height="25" viewBox="0 0 120 25" fill="none" xmlns="http://www.w3.org/2000/svg">
<path d="M0.0810547 23.7752V6.1112H3.69705V23.7752H0.0810547ZM0.0810547 4.1272V0.127197H3.69705V4.1272H0.0810547Z" fill="black"/>
<path d="M7.33105 23.7752V6.1112H10.7551V7.9992C11.5231 7.18853 12.3124 6.60186 13.1231 6.2392C13.9337 5.87653 14.8724 5.6952 15.9391 5.6952C18.3284 5.6952 20.0991 6.40986 21.2511 7.8392C22.4031 9.2472 22.9791 11.4232 22.9791 14.3672V23.7752H19.3631V14.9432C19.3631 12.8739 19.0324 11.3699 18.3711 10.4312C17.7311 9.49253 16.7071 9.0232 15.2991 9.0232C13.8271 9.0232 12.7284 9.51386 12.0031 10.4952C11.2991 11.4552 10.9471 12.9592 10.9471 15.0072V23.7752H7.33105Z" fill="black"/>
<path d="M32.1171 23.7752L24.9171 6.1112H28.8531L33.6531 18.8472L38.4211 6.1112H42.4211L35.2211 23.7752H32.1171Z" fill="black"/>
<path d="M43.6256 15.0072C43.6256 13.6632 43.8496 12.4259 44.2976 11.2952C44.7456 10.1432 45.3749 9.16186 46.1856 8.3512C46.9962 7.5192 47.9562 6.86853 49.0656 6.3992C50.1962 5.92986 51.4122 5.6952 52.7136 5.6952C54.0789 5.6952 55.2416 5.94053 56.2016 6.4312C57.1829 6.90053 58.0682 7.66853 58.8576 8.7352V6.1112H62.2496V23.7752H58.8576V21.2152C57.9829 22.2819 57.0656 23.0499 56.1056 23.5192C55.1669 23.9672 54.0362 24.1912 52.7136 24.1912C51.3909 24.1912 50.1749 23.9672 49.0656 23.5192C47.9562 23.0499 46.9962 22.4099 46.1856 21.5992C45.3749 20.7672 44.7456 19.7965 44.2976 18.6872C43.8496 17.5565 43.6256 16.3299 43.6256 15.0072ZM47.2736 15.0392C47.2736 15.8712 47.4122 16.6499 47.6896 17.3752C47.9882 18.0792 48.3936 18.6979 48.9056 19.2312C49.4389 19.7432 50.0576 20.1485 50.7616 20.4472C51.4869 20.7245 52.2656 20.8632 53.0976 20.8632C53.9296 20.8632 54.6869 20.7245 55.3696 20.4472C56.0736 20.1485 56.6816 19.7432 57.1936 19.2312C57.7056 18.6979 58.1002 18.0685 58.3776 17.3432C58.6549 16.6179 58.7936 15.8285 58.7936 14.9752C58.7936 14.1219 58.6442 13.3325 58.3456 12.6072C58.0682 11.8605 57.6629 11.2312 57.1296 10.7192C56.6176 10.1859 55.9989 9.76986 55.2736 9.4712C54.5696 9.17253 53.7909 9.0232 52.9376 9.0232C52.1269 9.0232 51.3802 9.1832 50.6976 9.5032C50.0149 9.80186 49.4176 10.2179 48.9056 10.7512C48.3936 11.2845 47.9882 11.9245 47.6896 12.6712C47.4122 13.3965 47.2736 14.1859 47.2736 15.0392Z" fill="black"/>
<path d="M65.8936 23.7752V6.1112H69.2856V8.0952C69.5629 7.66853 69.8402 7.30586 70.1176 7.0072C70.3949 6.6872 70.7042 6.44186 71.0456 6.2712C71.3869 6.0792 71.7709 5.94053 72.1976 5.8552C72.6242 5.76986 73.1255 5.71653 73.7016 5.6952V9.2152C72.2936 9.2792 71.2376 9.6952 70.5336 10.4632C69.8509 11.2099 69.5096 12.3192 69.5096 13.7912V23.7752H65.8936Z" fill="black"/>
<path d="M76.1436 23.7752V6.1112H79.7596V23.7752H76.1436ZM76.1436 4.1272V0.127197H79.7596V4.1272H76.1436Z" fill="black"/>
<path d="M82.6256 14.9752C82.6256 13.6739 82.8602 12.4579 83.3296 11.3272C83.8202 10.1965 84.4922 9.2152 85.3456 8.3832C86.1989 7.5512 87.1909 6.90053 88.3216 6.4312C89.4736 5.94053 90.7109 5.6952 92.0336 5.6952C93.3136 5.6952 94.5189 5.94053 95.6496 6.4312C96.7802 6.92186 97.7616 7.5832 98.5936 8.4152C99.4256 9.2472 100.076 10.2285 100.546 11.3592C101.036 12.4899 101.282 13.6952 101.282 14.9752C101.282 16.2765 101.036 17.4925 100.546 18.6232C100.076 19.7325 99.4256 20.7032 98.5936 21.5352C97.7616 22.3459 96.7802 22.9965 95.6496 23.4872C94.5189 23.9565 93.3136 24.1912 92.0336 24.1912C90.7109 24.1912 89.4736 23.9565 88.3216 23.4872C87.1909 23.0179 86.1989 22.3672 85.3456 21.5352C84.4922 20.6819 83.8202 19.7005 83.3296 18.5912C82.8602 17.4605 82.6256 16.2552 82.6256 14.9752ZM91.9696 20.8632C92.7589 20.8632 93.4949 20.7139 94.1776 20.4152C94.8816 20.1165 95.4789 19.7005 95.9696 19.1672C96.4816 18.6339 96.8762 18.0152 97.1536 17.3112C97.4522 16.6072 97.6016 15.8392 97.6016 15.0072C97.6016 14.1539 97.4522 13.3645 97.1536 12.6392C96.8762 11.9139 96.4816 11.2845 95.9696 10.7512C95.4576 10.2179 94.8496 9.80186 94.1456 9.5032C93.4416 9.1832 92.6842 9.0232 91.8736 9.0232C91.1056 9.0232 90.3802 9.1832 89.6976 9.5032C89.0149 9.80186 88.4176 10.2285 87.9056 10.7832C87.3936 11.3165 86.9882 11.9459 86.6896 12.6712C86.4122 13.3752 86.2736 14.1432 86.2736 14.9752C86.2736 15.8072 86.4122 16.5859 86.6896 17.3112C86.9882 18.0152 87.3936 18.6339 87.9056 19.1672C88.4389 19.7005 89.0469 20.1165 89.7296 20.4152C90.4336 20.7139 91.1802 20.8632 91.9696 20.8632Z" fill="black"/>
<path d="M104.144 23.7752V6.1112H107.568V7.9992C108.336 7.18853 109.125 6.60186 109.936 6.2392C110.746 5.87653 111.685 5.6952 112.752 5.6952C115.141 5.6952 116.912 6.40986 118.064 7.8392C119.216 9.2472 119.792 11.4232 119.792 14.3672V23.7752H116.176V14.9432C116.176 12.8739 115.845 11.3699 115.184 10.4312C114.544 9.49253 113.52 9.0232 112.112 9.0232C110.64 9.0232 109.541 9.51386 108.816 10.4952C108.112 11.4552 107.76 12.9592 107.76 15.0072V23.7752H104.144Z" fill="black"/>
</svg>
