<svg width="197" height="17" viewBox="0 0 197 17" fill="none" xmlns="http://www.w3.org/2000/svg">
<path d="M19.9915 3.35918H13.5915V16.1592H10.3915V3.35918H3.9915V0.15918H19.9915V3.35918ZM0.791504 16.1592V6.55918C0.791504 4.79918 2.2315 3.35918 3.9915 3.35918V16.1592H0.791504ZM19.9915 16.1592V3.35918C21.7515 3.35918 23.1915 4.79918 23.1915 6.55918V16.1592H19.9915Z" fill="black"/>
<path d="M48.804 3.35918H32.804V0.15918H48.804V3.35918ZM29.604 9.75918V6.55918C29.604 4.79918 31.044 3.35918 32.804 3.35918V12.9592C31.044 12.9592 29.604 11.5192 29.604 9.75918ZM32.804 16.1592V12.9592H48.804V16.1592H32.804ZM48.804 12.9592V3.35918C50.564 3.35918 52.004 4.79918 52.004 6.55918V9.75918C52.004 11.5192 50.564 12.9592 48.804 12.9592Z" fill="black"/>
<path d="M74.4165 0.15918C76.1765 0.15918 77.6165 1.59918 77.6165 3.35918H61.6165V6.55918H77.6165V9.75918H61.6165V16.1592H58.4165V0.15918H74.4165ZM77.6165 16.1592V9.75918C79.3765 9.75918 80.8165 11.1992 80.8165 12.9592V16.1592H77.6165ZM77.6165 6.55918V3.35918H80.8165V6.55918H77.6165Z" fill="black"/>
<path d="M90.429 3.35918V6.55918H106.429V3.35918C108.189 3.35918 109.629 4.79918 109.629 6.55918V16.1592H106.429V9.75918H90.429V16.1592H87.229V6.55918C87.229 4.79918 88.669 3.35918 90.429 3.35918ZM90.429 3.35918V0.15918H106.429V3.35918H90.429Z" fill="black"/>
<path d="M135.242 3.35918H119.242V0.15918H135.242V3.35918ZM116.042 16.1592V6.55918C116.042 4.79918 117.481 3.35918 119.242 3.35918V16.1592H116.042ZM135.242 16.1592V3.35918C137.001 3.35918 138.441 4.79918 138.441 6.55918V16.1592H135.242Z" fill="black"/>
<path d="M167.254 3.35918H148.054V0.15918H167.254V3.35918ZM144.854 9.75918V6.55918C144.854 4.79918 146.294 3.35918 148.054 3.35918V12.9592C146.294 12.9592 144.854 11.5192 144.854 9.75918ZM148.054 16.1592V12.9592H167.254V16.1592H148.054Z" fill="black"/>
<path d="M196.066 3.35918H176.867V0.15918H196.066V3.35918ZM173.667 9.75918V6.55918C173.667 4.79918 175.107 3.35918 176.867 3.35918V6.55918H196.066V9.75918H176.867V12.9592C175.107 12.9592 173.667 11.5192 173.667 9.75918ZM176.867 16.1592V12.9592H196.066V16.1592H176.867Z" fill="black"/>
</svg>
