<svg width="127" height="53" viewBox="0 0 127 53" fill="none" xmlns="http://www.w3.org/2000/svg">
<path d="M0 0.663689H7.072L12.416 16.3757H12.48L17.536 0.663689H24.608V23.5117H19.904V7.31969H19.84L14.24 23.5117H10.368L4.768 7.47969H4.704V23.5117H0V0.663689Z" fill="black"/>
<path d="M34.7913 14.6797H40.7113L37.8312 6.29569H37.7673L34.7913 14.6797ZM35.2712 0.663689H40.4232L48.9673 23.5117H43.7513L42.0233 18.4237H33.4792L31.6873 23.5117H26.6313L35.2712 0.663689Z" fill="black"/>
<path d="M55.9615 10.9997H61.4655C62.6175 10.9997 63.4815 10.7437 64.0575 10.2317C64.6335 9.71969 64.9215 8.88769 64.9215 7.73569C64.9215 6.62636 64.6335 5.82636 64.0575 5.33569C63.4815 4.82369 62.6175 4.56769 61.4655 4.56769H55.9615V10.9997ZM50.9375 0.663689H63.2575C64.2815 0.663689 65.1988 0.834356 66.0095 1.17569C66.8415 1.49569 67.5455 1.94369 68.1215 2.51969C68.7188 3.09569 69.1668 3.76769 69.4655 4.53569C69.7855 5.28236 69.9455 6.09302 69.9455 6.96769C69.9455 8.31169 69.6575 9.47436 69.0815 10.4557C68.5268 11.437 67.6095 12.1837 66.3295 12.6957V12.7597C66.9482 12.9304 67.4602 13.197 67.8655 13.5597C68.2708 13.901 68.6015 14.317 68.8575 14.8077C69.1135 15.277 69.2948 15.7997 69.4015 16.3757C69.5295 16.9517 69.6148 17.5277 69.6575 18.1037C69.6788 18.4664 69.7002 18.893 69.7215 19.3837C69.7428 19.8744 69.7748 20.3757 69.8175 20.8877C69.8815 21.3997 69.9668 21.8904 70.0735 22.3597C70.2015 22.8077 70.3828 23.1917 70.6175 23.5117H65.5935C65.3162 22.7864 65.1455 21.9224 65.0815 20.9197C65.0175 19.917 64.9215 18.957 64.7935 18.0397C64.6228 16.845 64.2602 15.9704 63.7055 15.4157C63.1508 14.861 62.2442 14.5837 60.9855 14.5837H55.9615V23.5117H50.9375V0.663689Z" fill="black"/>
<path d="M89.2633 8.34369C89.1779 7.76769 88.9859 7.24502 88.6872 6.77569C88.3886 6.28502 88.0153 5.85836 87.5673 5.49569C87.1193 5.13302 86.6072 4.85569 86.0312 4.66369C85.4766 4.45036 84.8899 4.34369 84.2712 4.34369C83.1406 4.34369 82.1806 4.56769 81.3913 5.01569C80.6019 5.44236 79.9619 6.02902 79.4713 6.77569C78.9806 7.50102 78.6179 8.33302 78.3832 9.27169C78.1699 10.2104 78.0632 11.181 78.0632 12.1837C78.0632 13.1437 78.1699 14.0824 78.3832 14.9997C78.6179 15.8957 78.9806 16.7064 79.4713 17.4317C79.9619 18.157 80.6019 18.7437 81.3913 19.1917C82.1806 19.6184 83.1406 19.8317 84.2712 19.8317C85.8073 19.8317 87.0019 19.3624 87.8553 18.4237C88.7299 17.485 89.2632 16.2477 89.4552 14.7117H94.3193C94.1913 16.141 93.8606 17.4317 93.3273 18.5837C92.7939 19.7357 92.0899 20.717 91.2152 21.5277C90.3406 22.3384 89.3166 22.957 88.1432 23.3837C86.9699 23.8104 85.6792 24.0237 84.2712 24.0237C82.5219 24.0237 80.9432 23.725 79.5352 23.1277C78.1486 22.509 76.9753 21.6664 76.0153 20.5997C75.0553 19.533 74.3193 18.285 73.8073 16.8557C73.2952 15.405 73.0393 13.8477 73.0393 12.1837C73.0393 10.477 73.2952 8.89836 73.8073 7.44769C74.3193 5.97569 75.0553 4.69569 76.0153 3.60769C76.9753 2.51969 78.1486 1.66636 79.5352 1.04769C80.9432 0.429023 82.5219 0.11969 84.2712 0.11969C85.5299 0.11969 86.7139 0.301023 87.8232 0.663689C88.9539 1.02636 89.9566 1.55969 90.8313 2.26369C91.7272 2.94636 92.4633 3.79969 93.0393 4.82369C93.6152 5.84769 93.9779 7.02102 94.1273 8.34369H89.2633Z" fill="black"/>
<path d="M101.782 12.1837C101.782 13.1437 101.889 14.0824 102.102 14.9997C102.337 15.8957 102.699 16.7064 103.19 17.4317C103.681 18.157 104.321 18.7437 105.11 19.1917C105.899 19.6184 106.859 19.8317 107.99 19.8317C109.121 19.8317 110.081 19.6184 110.87 19.1917C111.659 18.7437 112.299 18.157 112.79 17.4317C113.281 16.7064 113.633 15.8957 113.846 14.9997C114.081 14.0824 114.198 13.1437 114.198 12.1837C114.198 11.181 114.081 10.2104 113.846 9.27169C113.633 8.33302 113.281 7.50102 112.79 6.77569C112.299 6.02902 111.659 5.44236 110.87 5.01569C110.081 4.56769 109.121 4.34369 107.99 4.34369C106.859 4.34369 105.899 4.56769 105.11 5.01569C104.321 5.44236 103.681 6.02902 103.19 6.77569C102.699 7.50102 102.337 8.33302 102.102 9.27169C101.889 10.2104 101.782 11.181 101.782 12.1837ZM96.758 12.1837C96.758 10.477 97.014 8.89836 97.526 7.44769C98.038 5.97569 98.774 4.69569 99.734 3.60769C100.694 2.51969 101.867 1.66636 103.254 1.04769C104.662 0.429023 106.241 0.11969 107.99 0.11969C109.761 0.11969 111.339 0.429023 112.726 1.04769C114.113 1.66636 115.286 2.51969 116.246 3.60769C117.206 4.69569 117.942 5.97569 118.454 7.44769C118.966 8.89836 119.222 10.477 119.222 12.1837C119.222 13.8477 118.966 15.405 118.454 16.8557C117.942 18.285 117.206 19.533 116.246 20.5997C115.286 21.6664 114.113 22.509 112.726 23.1277C111.339 23.725 109.761 24.0237 107.99 24.0237C106.241 24.0237 104.662 23.725 103.254 23.1277C101.867 22.509 100.694 21.6664 99.734 20.5997C98.774 19.533 98.038 18.285 97.526 16.8557C97.014 15.405 96.758 13.8477 96.758 12.1837Z" fill="black"/>
<path d="M5.024 40.7757H8.928C9.504 40.7757 10.0587 40.733 10.592 40.6477C11.1253 40.5624 11.5947 40.4024 12 40.1677C12.4053 39.9117 12.7253 39.5597 12.96 39.1117C13.216 38.6637 13.344 38.077 13.344 37.3517C13.344 36.6264 13.216 36.0397 12.96 35.5917C12.7253 35.1437 12.4053 34.8024 12 34.5677C11.5947 34.3117 11.1253 34.141 10.592 34.0557C10.0587 33.9704 9.504 33.9277 8.928 33.9277H5.024V40.7757ZM0 30.0237H10.304C11.7333 30.0237 12.9493 30.237 13.952 30.6637C14.9547 31.069 15.7653 31.613 16.384 32.2957C17.024 32.9784 17.4827 33.757 17.76 34.6317C18.0587 35.5064 18.208 36.413 18.208 37.3517C18.208 38.269 18.0587 39.1757 17.76 40.0717C17.4827 40.9464 17.024 41.725 16.384 42.4077C15.7653 43.0904 14.9547 43.645 13.952 44.0717C12.9493 44.477 11.7333 44.6797 10.304 44.6797H5.024V52.8717H0V30.0237Z" fill="black"/>
<path d="M21.3438 30.0237H26.3678V52.8717H21.3438V30.0237Z" fill="black"/>
<path d="M30.7812 30.0237H47.8693V34.2477H35.8053V39.1437H46.8773V43.0477H35.8053V48.6477H48.1253V52.8717H30.7812V30.0237Z" fill="black"/>
<path d="M56.5553 40.3597H62.0592C63.2113 40.3597 64.0753 40.1037 64.6513 39.5917C65.2272 39.0797 65.5153 38.2477 65.5153 37.0957C65.5153 35.9864 65.2272 35.1864 64.6513 34.6957C64.0753 34.1837 63.2113 33.9277 62.0592 33.9277H56.5553V40.3597ZM51.5312 30.0237H63.8512C64.8753 30.0237 65.7926 30.1944 66.6032 30.5357C67.4352 30.8557 68.1393 31.3037 68.7152 31.8797C69.3126 32.4557 69.7606 33.1277 70.0592 33.8957C70.3792 34.6424 70.5393 35.453 70.5393 36.3277C70.5393 37.6717 70.2513 38.8344 69.6752 39.8157C69.1206 40.797 68.2032 41.5437 66.9232 42.0557V42.1197C67.5419 42.2904 68.0539 42.557 68.4593 42.9197C68.8646 43.261 69.1953 43.677 69.4512 44.1677C69.7072 44.637 69.8886 45.1597 69.9953 45.7357C70.1233 46.3117 70.2086 46.8877 70.2513 47.4637C70.2726 47.8264 70.2939 48.253 70.3152 48.7437C70.3366 49.2344 70.3686 49.7357 70.4113 50.2477C70.4753 50.7597 70.5606 51.2504 70.6673 51.7197C70.7952 52.1677 70.9766 52.5517 71.2113 52.8717H66.1872C65.9099 52.1464 65.7392 51.2824 65.6752 50.2797C65.6112 49.277 65.5153 48.317 65.3873 47.3997C65.2166 46.205 64.8539 45.3304 64.2992 44.7757C63.7446 44.221 62.8379 43.9437 61.5793 43.9437H56.5553V52.8717H51.5312V30.0237Z" fill="black"/>
<path d="M79.649 40.3597H85.153C86.305 40.3597 87.169 40.1037 87.745 39.5917C88.321 39.0797 88.609 38.2477 88.609 37.0957C88.609 35.9864 88.321 35.1864 87.745 34.6957C87.169 34.1837 86.305 33.9277 85.153 33.9277H79.649V40.3597ZM74.625 30.0237H86.945C87.969 30.0237 88.8863 30.1944 89.697 30.5357C90.529 30.8557 91.233 31.3037 91.809 31.8797C92.4063 32.4557 92.8543 33.1277 93.153 33.8957C93.473 34.6424 93.633 35.453 93.633 36.3277C93.633 37.6717 93.345 38.8344 92.769 39.8157C92.2143 40.797 91.297 41.5437 90.017 42.0557V42.1197C90.6357 42.2904 91.1477 42.557 91.553 42.9197C91.9583 43.261 92.289 43.677 92.545 44.1677C92.801 44.637 92.9823 45.1597 93.089 45.7357C93.217 46.3117 93.3023 46.8877 93.345 47.4637C93.3663 47.8264 93.3877 48.253 93.409 48.7437C93.4303 49.2344 93.4623 49.7357 93.505 50.2477C93.569 50.7597 93.6543 51.2504 93.761 51.7197C93.889 52.1677 94.0703 52.5517 94.305 52.8717H89.281C89.0037 52.1464 88.833 51.2824 88.769 50.2797C88.705 49.277 88.609 48.317 88.481 47.3997C88.3103 46.205 87.9477 45.3304 87.393 44.7757C86.8383 44.221 85.9317 43.9437 84.673 43.9437H79.649V52.8717H74.625V30.0237Z" fill="black"/>
<path d="M97.7188 30.0237H114.807V34.2477H102.743V39.1437H113.815V43.0477H102.743V48.6477H115.063V52.8717H97.7188V30.0237Z" fill="black"/>
<path d="M126.222 2.11969C126.222 3.22426 125.327 4.11969 124.222 4.11969C123.117 4.11969 122.222 3.22426 122.222 2.11969C122.222 1.01512 123.117 0.11969 124.222 0.11969C125.327 0.11969 126.222 1.01512 126.222 2.11969Z" fill="black"/>
</svg>
