<svg width="161" height="33" viewBox="0 0 161 33" fill="none" xmlns="http://www.w3.org/2000/svg">
<path d="M31.9766 17.3592H26.2609C21.2682 17.3592 17.2209 21.4066 17.2209 26.3992V32.1149C25.1008 31.5306 31.3923 25.2391 31.9766 17.3592Z" fill="black"/>
<path d="M14.8209 32.1149V26.3992C14.8209 21.4066 10.7735 17.3592 5.78086 17.3592H0.0651855C0.649453 25.2391 6.94094 31.5306 14.8209 32.1149Z" fill="black"/>
<path d="M31.9766 14.9592C31.3923 7.07925 25.1008 0.787759 17.2209 0.203491V5.91917C17.2209 10.9118 21.2682 14.9592 26.2609 14.9592H31.9766Z" fill="black"/>
<path d="M14.8209 0.203491C6.94094 0.787759 0.649453 7.07925 0.0651855 14.9592H5.78086C10.7735 14.9592 14.8209 10.9118 14.8209 5.91917V0.203491Z" fill="black"/>
<path d="M10.8871 16.1592C13.1051 15.051 14.9127 13.2434 16.0208 11.0254C17.1291 13.2434 18.9366 15.051 21.1547 16.1592C18.9366 17.2673 17.1291 19.0749 16.0208 21.2929C14.9127 19.0749 13.1051 17.2673 10.8871 16.1592Z" fill="black"/>
<path d="M56.7484 27.1594H43.9164V5.36735H47.6284V24.5354L46.9884 23.6394H56.7484V27.1594Z" fill="black"/>
<path d="M64.1717 27.5114C62.9983 27.5114 62.0597 27.33 61.3557 26.9674C60.673 26.6047 60.161 26.114 59.8197 25.4953C59.4783 24.8767 59.2437 24.1727 59.1157 23.3834C59.009 22.594 58.9557 21.7727 58.9557 20.9193V11.5433H62.6677V21.2714C62.6677 22.2954 62.8917 22.9887 63.3397 23.3514C63.809 23.6927 64.353 23.8633 64.9717 23.8633C65.5903 23.8633 66.1983 23.746 66.7957 23.5114C67.4143 23.2767 67.9797 22.946 68.4917 22.5194C69.025 22.0927 69.441 21.6234 69.7397 21.1114L70.0277 23.0954H69.2277V11.5433H72.9397V27.1594H70.1557L69.3877 24.2794H70.4437C69.9103 24.9193 69.3023 25.4847 68.6197 25.9754C67.937 26.466 67.2223 26.85 66.4757 27.1273C65.729 27.3834 64.961 27.5114 64.1717 27.5114Z" fill="black"/>
<path d="M83.2397 27.5114C81.6397 27.5114 80.2423 27.1594 79.0477 26.4554C77.8743 25.7514 76.957 24.7913 76.2957 23.5753C75.6557 22.3594 75.3357 20.9514 75.3357 19.3514C75.3357 17.7514 75.6557 16.3433 76.2957 15.1273C76.957 13.89 77.8743 12.93 79.0477 12.2473C80.2423 11.5434 81.6397 11.1913 83.2397 11.1913C84.8397 11.1913 86.2583 11.6074 87.4957 12.4394C88.7543 13.2713 89.661 14.3807 90.2157 15.7674L86.7597 17.2714C86.4397 16.4607 85.9703 15.842 85.3517 15.4153C84.733 14.9887 84.0077 14.7753 83.1757 14.7753C82.0237 14.7753 81.053 15.1807 80.2637 15.9914C79.4957 16.7807 79.1117 17.9007 79.1117 19.3514C79.1117 20.7807 79.4957 21.9007 80.2637 22.7113C81.053 23.522 82.0237 23.9274 83.1757 23.9274C84.0077 23.9274 84.733 23.714 85.3517 23.2873C85.9703 22.8607 86.4397 22.242 86.7597 21.4314L90.2157 22.9034C89.6396 24.29 88.7223 25.41 87.4637 26.2634C86.2263 27.0954 84.8183 27.5114 83.2397 27.5114Z" fill="black"/>
<path d="M96.0642 27.1594H92.3522V11.5433H96.0642V27.1594ZM91.8722 6.67935C91.8722 5.99668 92.0748 5.44202 92.4802 5.01535C92.9068 4.56735 93.4828 4.34335 94.2082 4.34335C94.8908 4.34335 95.4455 4.56735 95.8722 5.01535C96.2988 5.44202 96.5122 5.99668 96.5122 6.67935C96.5122 7.36202 96.2988 7.91668 95.8722 8.34335C95.4455 8.77002 94.8908 8.98335 94.2082 8.98335C93.4828 8.98335 92.9068 8.77002 92.4802 8.34335C92.0748 7.91668 91.8722 7.36202 91.8722 6.67935Z" fill="black"/>
<path d="M105.896 27.5114C104.488 27.5114 103.24 27.17 102.152 26.4874C101.064 25.7833 100.21 24.8233 99.5917 23.6073C98.9943 22.37 98.6957 20.9407 98.6957 19.3194C98.6957 17.698 98.9943 16.2794 99.5917 15.0633C100.21 13.8473 101.064 12.898 102.152 12.2154C103.24 11.5327 104.498 11.1913 105.928 11.1913C107.314 11.1913 108.52 11.522 109.544 12.1833C110.589 12.8233 111.4 13.762 111.976 14.9993C112.552 16.2153 112.84 17.6554 112.84 19.3194C112.84 20.962 112.552 22.402 111.976 23.6394C111.4 24.8554 110.589 25.8047 109.544 26.4874C108.498 27.17 107.282 27.5114 105.896 27.5114ZM106.536 24.1833C107.73 24.1833 108.69 23.746 109.416 22.8714C110.162 21.9754 110.536 20.802 110.536 19.3514C110.536 17.9007 110.162 16.738 109.416 15.8633C108.69 14.9674 107.73 14.5194 106.536 14.5194C105.341 14.5194 104.36 14.9674 103.592 15.8633C102.845 16.738 102.472 17.89 102.472 19.3194C102.472 20.77 102.845 21.9433 103.592 22.8393C104.36 23.7353 105.341 24.1833 106.536 24.1833ZM111.272 27.1594L110.376 23.7353H110.664V15.3833H110.376V5.36735H114.088V27.1594H111.272Z" fill="black"/>
<path d="M124.15 27.4794C122.614 27.4794 121.27 27.1487 120.118 26.4874C118.966 25.8047 118.059 24.8554 117.398 23.6394C116.758 22.4234 116.438 21.0047 116.438 19.3834C116.438 17.7407 116.758 16.3113 117.398 15.0954C118.059 13.858 118.966 12.898 120.118 12.2154C121.27 11.5327 122.614 11.1913 124.15 11.1913C125.707 11.1913 127.062 11.5434 128.214 12.2473C129.387 12.93 130.294 13.89 130.934 15.1273C131.574 16.3433 131.894 17.7514 131.894 19.3514C131.894 19.5434 131.883 19.7354 131.862 19.9274C131.862 20.1194 131.851 20.29 131.83 20.4394H119.702V17.4634H129.078L128.31 19.1594C128.31 17.6874 127.969 16.482 127.286 15.5434C126.603 14.6047 125.569 14.1354 124.182 14.1354C122.923 14.1354 121.921 14.53 121.174 15.3194C120.449 16.0873 120.086 17.1113 120.086 18.3913V20.0874C120.086 21.41 120.449 22.466 121.174 23.2554C121.921 24.0233 122.945 24.4074 124.246 24.4074C125.419 24.4074 126.326 24.162 126.966 23.6714C127.627 23.1807 128.193 22.5727 128.662 21.8474L131.318 23.4473C130.614 24.77 129.675 25.7727 128.502 26.4554C127.329 27.138 125.878 27.4794 124.15 27.4794Z" fill="black"/>
<path d="M143.511 11.1913C144.621 11.1913 145.495 11.3727 146.135 11.7353C146.775 12.098 147.255 12.5993 147.575 13.2393C147.895 13.858 148.098 14.562 148.183 15.3513C148.29 16.1194 148.343 16.9193 148.343 17.7514V27.1594H144.631V17.4314C144.631 16.386 144.407 15.6927 143.959 15.3513C143.533 14.9887 142.999 14.8074 142.359 14.8074C141.762 14.8074 141.143 14.9354 140.503 15.1913C139.885 15.426 139.319 15.7567 138.807 16.1833C138.295 16.5887 137.879 17.058 137.559 17.5914L137.271 15.5753H138.071V27.1594H134.359V11.5433H137.143L137.911 14.3913L136.823 14.4233C137.421 13.762 138.071 13.1967 138.775 12.7273C139.479 12.2367 140.226 11.8633 141.015 11.6073C141.826 11.33 142.658 11.1913 143.511 11.1913Z" fill="black"/>
<path d="M157.747 27.4474C156.253 27.4474 155.069 27.042 154.195 26.2313C153.341 25.3993 152.915 24.098 152.915 22.3274V11.5433L153.619 7.92735H156.627V22.0074C156.627 22.6474 156.787 23.1167 157.107 23.4153C157.427 23.714 157.843 23.8633 158.355 23.8633C158.696 23.8633 159.005 23.842 159.283 23.7994C159.56 23.7567 159.805 23.7034 160.019 23.6394V27.0954C159.699 27.202 159.357 27.2874 158.995 27.3514C158.653 27.4153 158.237 27.4474 157.747 27.4474ZM150.515 14.9353V11.5433H160.019V14.9353H150.515Z" fill="black"/>
</svg>
