<svg width="155" height="24" viewBox="0 0 155 24" fill="none" xmlns="http://www.w3.org/2000/svg">
<path d="M0.0185547 1.1123H6.14355C7.99772 1.1123 9.47689 1.65397 10.5811 2.7373C11.7061 3.7998 12.2686 5.37272 12.2686 7.45605V16.8623C12.2686 18.9248 11.6852 20.4977 10.5186 21.5811C9.35189 22.6644 7.82064 23.2061 5.9248 23.2061H0.0185547V1.1123ZM6.0498 19.6748C6.7998 19.6748 7.3623 19.3936 7.7373 18.8311C8.13314 18.2477 8.33105 17.4456 8.33105 16.4248V8.14355C8.33105 7.01855 8.13314 6.16439 7.7373 5.58105C7.3623 4.97689 6.7998 4.6748 6.0498 4.6748H3.9248V19.6748H6.0498Z" fill="black"/>
<path d="M14.8311 17.4248V1.1123H18.7686V17.3311C18.7686 18.2269 18.9352 18.8831 19.2686 19.2998C19.6227 19.7165 20.154 19.9248 20.8623 19.9248C21.4248 19.9248 21.8623 19.7894 22.1748 19.5186C22.6956 19.1019 22.9456 18.3727 22.9248 17.3311V1.1123H26.8623V17.4248C26.8623 18.6123 26.6019 19.6644 26.0811 20.5811C25.5811 21.4977 24.8727 22.2061 23.9561 22.7061C23.0394 23.2061 22.0081 23.4561 20.8623 23.4561C19.6956 23.4561 18.654 23.2061 17.7373 22.7061C16.8415 22.2061 16.1331 21.4977 15.6123 20.5811C15.0915 19.6644 14.8311 18.6123 14.8311 17.4248Z" fill="black"/>
<path d="M42.0186 1.1123V23.2061H38.0811L33.4873 11.4248V23.2061H29.5498V1.1123H33.4873L38.0811 13.4248V1.1123H42.0186Z" fill="black"/>
<path d="M56.7373 1.1123V23.2061H52.7998V13.7373H48.6436V23.2061H44.7061V1.1123H48.6436V10.2061H52.7998V1.1123H56.7373Z" fill="black"/>
<path d="M68.4248 18.9248H63.2686L62.3623 23.2061H58.2686L63.9248 1.1123H67.7686L73.3936 23.2061H69.2998L68.4248 18.9248ZM67.7061 15.3936L65.8623 6.4248L63.9873 15.3936H67.7061Z" fill="black"/>
<path d="M90.5186 1.1123V23.2061H86.5811V10.2686L83.7686 18.9248H81.6436L78.8623 10.3623V23.2061H74.9248V1.1123H78.8623L82.7061 12.7686L86.5811 1.1123H90.5186Z" fill="black"/>
<path d="M112.612 19.9873V23.2061H111.081C110.373 23.2061 109.831 23.0811 109.456 22.8311C109.102 22.5602 108.696 22.0811 108.237 21.3936C107.633 22.1644 106.956 22.7165 106.206 23.0498C105.477 23.3623 104.623 23.5186 103.644 23.5186C102.144 23.5186 100.935 23.0498 100.019 22.1123C99.1019 21.1748 98.6436 19.9248 98.6436 18.3623C98.6436 17.2581 98.9144 16.1748 99.4561 15.1123C99.9977 14.029 100.914 12.7998 102.206 11.4248C101.373 10.0498 100.779 8.95605 100.425 8.14355C100.071 7.33105 99.8936 6.50814 99.8936 5.6748C99.8936 4.21647 100.352 3.03939 101.269 2.14355C102.185 1.24772 103.383 0.799805 104.862 0.799805C106.321 0.799805 107.498 1.24772 108.394 2.14355C109.31 3.03939 109.769 4.21647 109.769 5.6748C109.769 6.6123 109.519 7.57064 109.019 8.5498C108.539 9.52897 107.727 10.6436 106.581 11.8936L108.519 15.1436L109.987 12.7686L112.644 14.6123L110.362 18.1748L110.925 19.1436C111.091 19.4352 111.279 19.654 111.487 19.7998C111.696 19.9248 111.946 19.9873 112.237 19.9873H112.612ZM104.019 14.4248C103.394 15.1331 102.956 15.7581 102.706 16.2998C102.477 16.8415 102.362 17.404 102.362 17.9873C102.362 18.6748 102.508 19.2061 102.8 19.5811C103.112 19.9352 103.539 20.1123 104.081 20.1123C104.498 20.1123 104.883 19.9977 105.237 19.7686C105.612 19.5186 106.029 19.0811 106.487 18.4561L104.019 14.4248ZM104.706 8.7998C105.31 8.1123 105.716 7.52897 105.925 7.0498C106.133 6.57064 106.237 6.0498 106.237 5.4873C106.237 4.90397 106.112 4.46647 105.862 4.1748C105.612 3.8623 105.279 3.70605 104.862 3.70605C104.404 3.70605 104.05 3.8623 103.8 4.1748C103.571 4.4873 103.456 4.9248 103.456 5.4873C103.456 5.8623 103.539 6.2998 103.706 6.7998C103.894 7.2998 104.227 7.96647 104.706 8.7998Z" fill="black"/>
<path d="M120.675 17.1123V7.1748C120.675 5.09147 121.258 3.50814 122.425 2.4248C123.612 1.34147 125.164 0.799805 127.081 0.799805C128.914 0.799805 130.394 1.34147 131.519 2.4248C132.644 3.4873 133.206 5.10189 133.206 7.26855V7.95605H129.269V7.2998C129.269 6.2998 129.06 5.56022 128.644 5.08105C128.227 4.60189 127.675 4.3623 126.987 4.3623C126.154 4.3623 125.55 4.65397 125.175 5.2373C124.8 5.7998 124.612 6.65397 124.612 7.7998V16.6748C124.612 18.8206 125.404 19.904 126.987 19.9248C127.696 19.9248 128.248 19.6748 128.644 19.1748C129.06 18.6748 129.269 17.9456 129.269 16.9873V16.4248H133.175V17.0186C133.175 19.1436 132.581 20.7477 131.394 21.8311C130.227 22.9144 128.716 23.4561 126.862 23.4561C124.946 23.4561 123.435 22.9248 122.331 21.8623C121.227 20.779 120.675 19.1956 120.675 17.1123Z" fill="black"/>
<path d="M135.644 17.1123V7.1748C135.644 5.09147 136.227 3.50814 137.394 2.4248C138.581 1.34147 140.133 0.799805 142.05 0.799805C143.904 0.799805 145.383 1.34147 146.487 2.4248C147.612 3.50814 148.175 5.09147 148.175 7.1748V17.1123C148.175 19.154 147.581 20.7269 146.394 21.8311C145.227 22.9144 143.706 23.4561 141.831 23.4561C139.914 23.4561 138.404 22.9248 137.3 21.8623C136.196 20.779 135.644 19.1956 135.644 17.1123ZM144.237 16.6748V7.7998C144.237 6.6748 144.05 5.82064 143.675 5.2373C143.3 4.65397 142.727 4.3623 141.956 4.3623C141.123 4.3623 140.519 4.65397 140.144 5.2373C139.769 5.7998 139.581 6.65397 139.581 7.7998V16.6748C139.581 18.8206 140.373 19.904 141.956 19.9248C142.685 19.9248 143.248 19.6436 143.644 19.0811C144.039 18.4977 144.237 17.6956 144.237 16.6748Z" fill="black"/>
<path d="M150.331 18.9873H154.081V23.2061H150.331V18.9873Z" fill="black"/>
</svg>
